<svg t="1690428173585" class="icon" viewBox="0 0 1248 1024" version="1.1" xmlns="http://www.w3.org/2000/svg" p-id="7004" width="200" height="200"><path d="M779.0592 391.2192h469.8112v101.2736h-469.8112zM779.0592 922.5728h399.36v101.2736h-399.36zM779.0592 745.472h341.76v101.2736h-341.76zM779.0592 568.32h280.9344v101.2736h-280.9344z" fill="#FF6F73" p-id="7005"></path><path d="M573.7984 391.2192h101.2736v632.6784h-101.2736zM572.16 4.1984L507.4944 206.592h-2.5088L443.5456 4.1984H350.208l101.632 291.4304h103.7312L660.1216 4.1984zM855.808 275.456a65.6384 65.6384 0 0 0 19.5072-28.7744 118.79424 118.79424 0 0 0 5.888-38.8608 206.50496 206.50496 0 0 0-2.5088-34.4576 57.1392 57.1392 0 0 0-10.9056-25.6 72.71936 72.71936 0 0 0-24.576-19.3024 214.45632 214.45632 0 0 0-43.4688-15.36 508.66688 508.66688 0 0 1-21.8112-5.888 60.5952 60.5952 0 0 1-13.0048-5.12 13.95712 13.95712 0 0 1-6.0928-6.0928 20.84352 20.84352 0 0 1-1.4848-8.3968 16.2816 16.2816 0 0 1 8.6016-15.36 62.55104 62.55104 0 0 1 28.7744-4.8128c5.87264 0 12.30336 0.34304 19.3024 1.024s13.824 1.52064 20.48 2.5088c6.82496 0.98816 13.056 2.048 18.688 3.1744 4.48 0.80896 8.89344 1.93536 13.2096 3.3792v-66.56a200.09984 200.09984 0 0 0-30.208-7.3728 271.232 271.232 0 0 0-45.3632-3.1744 232.38144 232.38144 0 0 0-47.2576 4.4032 93.70112 93.70112 0 0 0-36.096 15.36 69.5808 69.5808 0 0 0-22.8864 28.1088 103.13216 103.13216 0 0 0-7.9872 43.0592c-0.19968 11.22304 0.93184 22.4256 3.3792 33.3824a55.44448 55.44448 0 0 0 12.1856 23.7056 69.53472 69.53472 0 0 0 24.1664 16.9984 209.77664 209.77664 0 0 0 39.2704 12.3904 185.7024 185.7024 0 0 1 22.0672 6.5024c4.43904 1.57696 8.66816 3.69152 12.5952 6.2976 2.59584 1.67936 4.64384 4.08064 5.888 6.912 1.01376 2.68288 1.51552 5.5296 1.4848 8.3968a43.89376 43.89376 0 0 1-1.28 11.3152 12.44672 12.44672 0 0 1-5.4784 7.3728 31.47264 31.47264 0 0 1-11.9808 3.9936 135.70048 135.70048 0 0 1-20.7872 1.28c-6.4512 0-13.27616-0.27136-20.48-0.8192a359.53152 359.53152 0 0 1-21.6064-2.304 282.86976 282.86976 0 0 1-20.48-3.584 222.17728 222.17728 0 0 1-16.7936-4.1984v71.68a365.02016 365.02016 0 0 0 37.5808 6.7072c15.38048 1.9968 30.87872 2.9696 46.3872 2.9184a215.8848 215.8848 0 0 0 56.6784-6.2976 93.0816 93.0816 0 0 0 36.4032-18.5344z" fill="#52B7FD" p-id="7006"></path><path d="M0 386.56h469.8112v101.2736H0zM70.4512 917.9648h399.36v101.2736h-399.36zM128.0512 740.8128h341.76v101.2736H128.0512zM188.8768 563.712h280.9344v101.2736H188.8768z" fill="#52B7FD" p-id="7007"></path></svg>
